<?xml version="1.0" encoding="utf-8"?>
<!-- Generator: Adobe Illustrator 25.2.3, SVG Export Plug-In . SVG Version: 6.00 Build 0)  -->
<svg version="1.1" id="Layer_1" xmlns="http://www.w3.org/2000/svg" xmlns:xlink="http://www.w3.org/1999/xlink" x="0px" y="0px"
	 viewBox="0 0 319 57.7" style="enable-background:new 0 0 319 57.7;" xml:space="preserve">
<style type="text/css">
	.st0{fill:#FF017B;}
</style>
<g id="レイヤー_2">
	<g id="レイヤー_1-2">
		<path class="st0" d="M0,9.3C-0.1,7.7,0.4,6.2,1.3,5c1.1-1,2.5-1.5,4-1.4c1.5-0.1,3,0.4,4,1.4c1,1.2,1.4,2.7,1.3,4.3v42
			c0.1,1.5-0.4,3.1-1.3,4.3c-1.1,1-2.5,1.5-4,1.4c-1.5,0.1-2.9-0.4-4-1.4c-1-1.2-1.5-2.7-1.4-4.3V9.3z"/>
		<path class="st0" d="M32.5,51.2c0.1,1.5-0.4,3.1-1.3,4.3c-1.1,1-2.5,1.5-4,1.4c-1.5,0.1-2.9-0.4-4-1.4c-1-1.2-1.4-2.7-1.3-4.2
			V12.5c0-3.2,0.5-5.3,1.4-6.5c0.9-1.1,2.6-1.7,5.1-1.7h18.7c5.7,0,9.9,1.2,12.6,3.6c2.7,2.4,4.1,6.1,4.1,11.1
			c0.1,2.8-0.6,5.5-2,7.9c-1.3,2.1-3.4,3.7-5.8,4.4c1.8,0.5,3.3,1.6,4.4,3.1c1.1,1.7,1.7,3.6,1.8,5.6c0.1,1,0.2,2.2,0.2,3.8
			c0,1.1,0.1,2.1,0.3,3.2c0.1,0.6,0.3,1.5,0.5,2.7c0.2,0.8,0.3,1.6,0.4,2.5c0.1,1.3-0.5,2.6-1.4,3.5c-1.1,0.9-2.5,1.4-3.9,1.3
			c-2.2,0-3.8-0.6-4.8-1.9s-1.6-4.6-2-9.8c-0.3-4.2-0.9-6.7-2-7.7c-1.1-1-3-1.5-5.7-1.5H32.5V51.2z M32.5,13.2V27h12.6
			c2.7,0,4.7-0.6,6-1.7s1.9-2.8,1.9-5.2c0.1-1.9-0.5-3.7-1.9-5.1c-1.6-1.3-3.6-1.9-5.6-1.7L32.5,13.2z"/>
		<path class="st0" d="M80.4,53c-0.3,1.2-1,2.2-1.9,3c-2.2,1.4-5,1.2-7-0.3c-1-0.9-1.5-2.1-1.4-3.4c0-0.5,0-0.9,0.1-1.4
			c0.1-0.5,0.2-0.9,0.4-1.4L85,9.1c0.8-2.3,1.7-3.8,2.7-4.5c1-0.7,2.7-1,5.1-1c1.7-0.1,3.5,0.2,5,1c1,0.6,2,2.1,2.8,4.4l14.6,40.5
			c0.2,0.4,0.3,0.9,0.4,1.4c0.1,0.5,0.1,0.9,0.1,1.4c0,1.3-0.5,2.5-1.4,3.4c-1,0.9-2.4,1.4-3.8,1.3c-1.1,0.1-2.3-0.3-3.2-0.9
			c-1-0.8-1.7-1.8-2-3l-2.4-7.4H82.8L80.4,53z M92.8,14.7l-7.2,22.1h14.4L92.8,14.7z"/>
		<path class="st0" d="M129.6,56.3c-2.5,0-4.1-0.6-5.1-1.7s-1.4-3.3-1.4-6.4V12.5c0-3.2,0.5-5.3,1.4-6.5c0.9-1.1,2.6-1.7,5.1-1.7h18
			c5.3,0,9.4,1.1,12.2,3.4c2.8,2.2,4.2,5.5,4.2,9.8c0.1,2.3-0.5,4.6-1.5,6.6c-1.1,1.8-2.7,3.2-4.7,4.1c2.4,0.9,4.5,2.5,6,4.7
			c1.4,2.3,2.1,4.9,2,7.6c0,5.1-1.6,9-4.9,11.7c-3.3,2.8-8,4.1-14,4.1L129.6,56.3z M133.3,13.3v11.1h12.2c2.6,0,4.6-0.5,5.8-1.4
			c1.3-1,2-2.6,1.8-4.3c0.1-1.6-0.5-3.1-1.8-4.1c-1.2-0.9-3.2-1.3-5.9-1.3L133.3,13.3z M133.3,33.3v13.6H146c3,0,5.2-0.5,6.5-1.6
			s2-2.8,2-5.1c0-2.3-0.7-4.2-2-5.2c-1.3-1.1-3.5-1.6-6.6-1.6L133.3,33.3z"/>
		<path class="st0" d="M197.1,2.9c7.8,0,14,2.5,18.6,7.4s6.9,11.6,6.9,20c0,8.4-2.3,15-6.9,20s-10.8,7.4-18.6,7.4
			c-7.8,0-14-2.5-18.5-7.4c-4.6-4.9-6.8-11.6-6.8-20c0-8.4,2.3-15.1,6.8-20C183.2,5.4,189.3,3,197.1,2.9z M197.1,12.2
			c-4.6,0-8.1,1.6-10.7,4.7s-3.8,7.6-3.8,13.3c0,5.7,1.3,10.2,3.8,13.3s6.1,4.7,10.7,4.7c4.6,0,8.2-1.6,10.8-4.7
			c2.6-3.2,3.9-7.6,3.8-13.3c0-5.7-1.3-10.2-3.8-13.3C205.3,13.8,201.7,12.2,197.1,12.2z"/>
		<path class="st0" d="M241.6,50.6c0.1,1.7-0.3,3.4-1.3,4.8c-2.3,2-5.7,2-8,0c-0.9-1.4-1.4-3.1-1.2-4.8V11.7c0-3.2,0.5-5.3,1.4-6.4
			s2.6-1.7,5.1-1.7c2.8,0,5.6,2.4,8.4,7.1c0.3,0.4,0.4,0.7,0.6,0.9L263.4,40V9.9c-0.1-1.7,0.3-3.4,1.3-4.8c2.3-2.1,5.7-2.1,8,0
			c1,1.4,1.4,3.1,1.3,4.8v39c0,3-0.4,5.1-1.3,6.3s-2.4,1.7-4.5,1.7c-1.5,0.1-3.1-0.3-4.4-1c-1.1-0.7-2.4-2.3-3.9-4.8l-18.2-30.6
			V50.6z"/>
		<circle class="st0" cx="294.8" cy="48.5" r="9"/>
		<ellipse transform="matrix(0.401 -0.9161 0.9161 0.401 167.9749 293.9647)" class="st0" cx="308.8" cy="18.5" rx="20" ry="7"/>
	</g>
</g>
</svg>
